PathFileType	4	(X/Y/Z)	C:/Users/opensim2020/Desktop/walking_exp_matlab/subject06_walking18_straight_03_cyclic.trc	
DataRate	CameraRate	NumFrames	NumMarkers	Units	OrigDataRate	OrigDataStartFrame	OrigNumFrames	
100.00	100.00	5	47	mm	100.00	3453	148	
Frame#	Time	LFHD			RFHD			LBHD			RBHD			C7			T10			CLAV			STRN			RBAK			LSHO			LUPA			LELB			LFRM			LWRA			LWRB			LFIN			RSHO			RUPA			RELB			RFRM			RWRA			RWRB			RFIN			LASI			RASI			LPSI			RPSI			LTHI			LKNE			LTIB			LANK			LHEE			LTOE			RTHI			RKNE			RTIB			RANK			RHEE			RTOE			*39			*40			*41			*42			*43			*44			*45			*46			
		X1	Y1	Z1	X2	Y2	Z2	X3	Y3	Z3	X4	Y4	Z4	X5	Y5	Z5	X6	Y6	Z6	X7	Y7	Z7	X8	Y8	Z8	X9	Y9	Z9	X10	Y10	Z10	X11	Y11	Z11	X12	Y12	Z12	X13	Y13	Z13	X14	Y14	Z14	X15	Y15	Z15	X16	Y16	Z16	X17	Y17	Z17	X18	Y18	Z18	X19	Y19	Z19	X20	Y20	Z20	X21	Y21	Z21	X22	Y22	Z22	X23	Y23	Z23	X24	Y24	Z24	X25	Y25	Z25	X26	Y26	Z26	X27	Y27	Z27	X28	Y28	Z28	X29	Y29	Z29	X30	Y30	Z30	X31	Y31	Z31	X32	Y32	Z32	X33	Y33	Z33	X34	Y34	Z34	X35	Y35	Z35	X36	Y36	Z36	X37	Y37	Z37	X38	Y38	Z38	X39	Y39	Z39	X40	Y40	Z40	X41	Y41	Z41	X42	Y42	Z42	X43	Y43	Z43	X44	Y44	Z44	X45	Y45	Z45	X46	Y46	Z46	X47	Y47	Z47	

93	0.920	1328.68811	137.74425	1672.34448	1460.42371	132.00981	1663.89038	1323.56152	5.95612	1614.95886	1452.98767	1.49940	1611.86609	1384.30896	5.06311	1459.94678	1404.27478	-34.65820	1133.14856	1393.60815	114.25234	1382.90332	1396.52588	152.86949	1207.35425	1468.15967	-72.51199	1294.10156	1228.13257	69.52959	1408.83374	1154.10132	76.33798	1206.24158	1140.30664	78.99485	1094.17383	1124.98499	123.59701	949.68640	1179.87170	188.45224	843.81384	1131.00793	138.51715	831.56262	1138.20056	191.03795	758.19110	1550.39526	63.02849	1420.50122	1642.73486	22.29198	1224.76270	1655.64612	30.16302	1102.65015	1674.47034	47.77009	984.01123	1646.05042	111.27113	846.67615	1684.85938	57.36202	846.52136	1688.62073	97.19911	772.01996	1311.00122	145.87065	970.74005	1531.72473	130.55357	975.70001	1329.99463	-15.04179	1002.41382	1497.72522	-18.53170	1000.88629	1249.84375	69.11555	658.79205	1271.07947	63.96146	494.85217	1288.55762	39.09142	239.33183	1337.35486	57.22871	66.33723	1384.36401	20.03683	51.40065	1346.56360	205.24666	43.67733	1591.58179	112.38934	639.71100	1576.27429	141.38387	516.09088	1578.71936	-13.17484	309.29260	1541.19092	-135.41872	168.47423	1497.95801	-184.18901	167.90735	1536.93237	-30.10246	58.33191	1382.49695	34.00860	1709.69971																					 
94	0.930	1328.15869	144.07703	1672.43347	1459.90857	138.41237	1663.97217	1323.21338	11.98842	1615.56787	1452.61743	7.67613	1612.46790	1383.82153	10.83264	1460.33521	1403.29858	-29.28131	1133.54333	1393.07922	119.82259	1383.14514	1395.86011	158.28372	1207.57886	1467.52490	-66.99196	1294.53760	1227.61780	74.97852	1409.39783	1153.53894	82.96154	1206.89148	1139.63684	86.97156	1094.71082	1124.37402	133.50035	951.06506	1179.97607	199.59264	846.08698	1130.88855	150.05853	833.09509	1138.45386	203.39795	760.46753	1549.82874	68.63681	1420.71228	1642.16699	27.72506	1224.99292	1654.93030	35.08666	1102.84546	1673.74231	52.57635	984.13513	1645.02917	115.72849	846.61407	1683.98560	61.84015	846.58710	1687.43994	101.42533	771.86047	1310.06165	150.96771	970.74988	1530.83899	135.57521	976.02753	1329.04150	-9.77178	1002.66321	1496.77039	-13.31811	1001.30261	1249.49683	73.41407	658.69476	1270.68530	67.29289	494.85748	1288.38904	40.60954	239.40459	1337.41296	57.11609	66.46269	1384.40295	20.07128	51.51609	1346.90552	205.40837	43.37342	1590.74951	120.49113	640.78796	1574.85632	151.04269	517.57874	1577.84790	1.87411	306.53955	1540.95691	-117.06736	162.64702	1498.20752	-166.41080	160.85915	1535.13159	-8.41772	55.92206	1382.13855	40.47776	1710.19006																					 
95	0.940	1327.81885	150.10449	1672.47021	1459.37646	144.51169	1664.04016	1322.89905	18.04948	1616.13477	1452.35803	13.77320	1612.95410	1383.46484	16.40372	1460.67114	1402.36304	-24.03892	1133.97424	1392.60315	125.33110	1383.41663	1395.11743	163.63881	1207.80847	1466.88135	-61.59037	1294.87610	1227.11633	80.50012	1409.96997	1152.95081	89.53374	1207.53198	1139.10168	94.74084	1095.40063	1124.25916	143.15398	952.23169	1180.04492	210.65759	848.42657	1131.12683	161.30063	834.56384	1138.82727	215.68388	762.74017	1549.31250	74.28329	1420.75427	1641.61340	33.06092	1225.14258	1654.45874	40.27540	1102.93787	1673.00256	57.31754	984.17755	1643.99060	120.13042	846.50226	1683.15466	66.37312	846.56592	1686.23608	105.73501	771.61017	1309.23352	156.02925	970.65710	1529.98376	140.62683	976.37781	1328.15222	-4.52196	1002.82397	1495.86682	-8.20863	1001.77863	1248.91211	77.50702	658.71161	1270.45630	70.77403	494.76245	1288.17896	42.44401	239.47081	1337.57666	57.42701	66.56205	1384.50342	20.27123	51.67082	1347.16797	205.69817	43.09301	1590.04663	128.52548	641.94183	1573.68237	160.54504	519.12903	1577.14490	16.66663	304.00327	1540.59766	-98.25337	156.69536	1498.11523	-147.80423	153.36263	1533.45276	14.00074	53.92536	1381.84827	46.91666	1710.62341																					 
96	0.950	1327.70166	156.44905	1672.57263	1459.19043	151.02856	1664.08862	1322.72278	24.03098	1616.63806	1452.15405	19.99027	1613.43408	1383.08948	22.12332	1461.00842	1401.42017	-18.64755	1134.26575	1392.09863	130.89044	1383.58569	1394.42871	169.01823	1207.93347	1466.22705	-56.17389	1295.24023	1226.65381	85.99653	1410.52234	1152.48242	95.93568	1208.16125	1138.76660	102.25670	1096.03735	1124.38196	152.44667	953.39819	1180.22559	221.75822	850.93195	1131.44409	172.31847	836.16888	1139.32251	227.77640	765.05878	1548.87646	79.87492	1420.77405	1641.11230	38.31845	1225.20056	1653.88110	45.30368	1102.95728	1672.37781	62.15120	984.14307	1642.96863	124.43626	846.24829	1682.38770	70.88828	846.49860	1685.22888	110.07299	771.41650	1308.42664	161.08701	970.51630	1529.13708	145.62999	976.71863	1327.31885	0.67865	1002.98041	1495.01953	-3.14672	1002.20160	1248.56580	81.81220	658.55780	1270.31909	74.19402	494.66040	1288.01917	44.45336	239.47644	1337.76563	58.05458	66.54852	1384.65527	20.49610	51.90780	1347.42810	205.93315	42.83551	1589.44531	136.50296	643.08093	1572.54688	169.79221	520.63055	1576.45618	31.37066	301.56516	1540.07776	-79.07156	150.70543	1497.97107	-128.58600	145.71613	1532.39038	36.74429	52.43860	1381.69629	53.31668	1710.99634																					 
97	0.960	1327.45947	162.60913	1672.64404	1458.84094	157.12514	1664.04626	1322.60889	30.00791	1617.06946	1452.01770	26.08977	1613.79602	1382.75403	27.80204	1461.27722	1400.41968	-13.34758	1134.47852	1391.67932	136.43211	1383.65845	1393.69543	174.29305	1208.02563	1465.54529	-50.90154	1295.51062	1226.25049	91.59643	1411.03650	1152.05725	102.23496	1208.72290	1138.42517	109.61810	1096.58545	1124.14307	161.75671	954.68011	1180.39648	232.72714	853.45569	1131.96228	183.28882	837.64148	1139.98877	239.78760	767.35242	1548.44885	85.44712	1420.70752	1640.55615	43.43681	1225.11426	1653.22473	50.06442	1102.89966	1671.65576	66.86058	984.02899	1641.69910	128.18330	845.79974	1681.60120	75.30921	846.39337	1684.25098	114.35801	771.20306	1307.68347	166.19568	970.32141	1528.33899	150.69479	977.01727	1326.45959	5.80135	1003.08234	1494.19482	1.89576	1002.59186	1248.29504	86.02000	658.37317	1270.22473	77.55321	494.56421	1288.05420	46.27751	239.49277	1338.06384	58.47155	66.67152	1384.60669	20.25701	52.21901	1347.69031	206.29741	42.55045	1588.93323	144.38412	644.05634	1571.51160	178.80072	522.19263	1575.65833	45.93907	299.15588	1539.43542	-59.54106	144.74020	1497.40186	-109.09031	138.01591	1531.31335	59.94869	51.24483	1381.60413	59.59735	1711.30139																					 
